<?xml version="1.0" encoding="UTF-8" standalone="no"?>
<!-- Generator: Adobe Illustrator 19.0.0, SVG Export Plug-In . SVG Version: 6.00 Build 0)  -->

<svg
   xmlns:dc="http://purl.org/dc/elements/1.1/"
   xmlns:cc="http://creativecommons.org/ns#"
   xmlns:rdf="http://www.w3.org/1999/02/22-rdf-syntax-ns#"
   xmlns:svg="http://www.w3.org/2000/svg"
   xmlns="http://www.w3.org/2000/svg"
   xmlns:sodipodi="http://sodipodi.sourceforge.net/DTD/sodipodi-0.dtd"
   xmlns:inkscape="http://www.inkscape.org/namespaces/inkscape"
   version="1.1"
   id="Layer_1"
   x="0px"
   y="0px"
   viewBox="0 0 96 96"
   style="enable-background:new 0 0 96 96;"
   xml:space="preserve"
   sodipodi:docname="logo.svg"
   inkscape:version="0.92.4 5da689c313, 2019-01-14"><metadata
   id="metadata14"><rdf:RDF><cc:Work
       rdf:about=""><dc:format>image/svg+xml</dc:format><dc:type
         rdf:resource="http://purl.org/dc/dcmitype/StillImage" /><dc:title></dc:title></cc:Work></rdf:RDF></metadata><defs
   id="defs12" /><sodipodi:namedview
   pagecolor="#ffffff"
   bordercolor="#666666"
   borderopacity="1"
   objecttolerance="10"
   gridtolerance="10"
   guidetolerance="10"
   inkscape:pageopacity="0"
   inkscape:pageshadow="2"
   inkscape:window-width="1920"
   inkscape:window-height="1006"
   id="namedview10"
   showgrid="false"
   inkscape:zoom="1.7383042"
   inkscape:cx="30.139499"
   inkscape:cy="105.664"
   inkscape:window-x="0"
   inkscape:window-y="0"
   inkscape:window-maximized="1"
   inkscape:current-layer="g8499" />
<style
   type="text/css"
   id="style2">
	.st0{fill:#2980B9;}
	.st1{fill:#3498DB;}
	.st2{fill:#2ECC71;}
	.st3{fill:#27AE60;}
</style>

<g
   id="g8499"
   transform="matrix(1.3407388,0,0,1.3407388,-16.409202,-16.355463)"><g
     id="XMLID_1_">
	<circle
   r="32.5"
   cy="48"
   cx="48"
   class="st0"
   id="XMLID_3_"
   style="fill:#2980b9" />
	<path
   d="m 48,15.5 v 65 C 65.9,80.5 80.5,65.7 80.5,48 80.5,30 65.9,15.5 48,15.5 Z"
   class="st1"
   id="XMLID_4_"
   inkscape:connector-curvature="0"
   style="fill:#3498db" />
	<path
   d="m 48,15.5 v 0.6 l 1.2,-0.3 c 0.3,-0.3 0.4,-0.3 0.6,-0.3 h -1.1 z m 7.3,0.9 c -0.1,0 0.4,0.9 1.1,1.8 0.8,1.5 1.1,2.1 1.3,2.1 0.3,-0.3 1.9,-1.2 3,-2.1 -1.7,-0.9 -3.5,-1.5 -5.4,-1.8 z m 10.3,6.2 c -0.1,0 -0.4,0 -0.9,0.6 l -0.8,0.9 0.6,0.6 c 0.3,0.6 0.8,0.9 1,1.2 0.5,0.6 0.6,0.6 0.1,1.5 -0.2,0.6 -0.3,0.9 -0.3,0.9 0.1,0.3 0.3,0.3 1.4,0.3 h 1.6 c 0.1,0 0.3,-0.6 0.4,-1.2 l 0.1,-0.9 -1.1,-0.9 c -1,-0.9 -1,-0.9 -1.4,-1.8 -0.3,-0.6 -0.6,-1.2 -0.7,-1.2 z m -3,2.4 c -0.2,0 -1.3,2.1 -1.3,2.4 0,0 0.3,0.6 0.7,0.9 0.4,0.3 0.7,0.6 0.7,0.6 0.1,0 1.2,-1.2 1.4,-1.5 C 64.2,27.1 64,26.8 63.5,26.2 63.1,25.5 62.7,25 62.6,25 Z m 9.5,1.1 0.2,0.3 c 0,0.3 -0.7,0.9 -1.4,1.5 -1.2,0.9 -1.4,1.2 -2,1.2 -0.6,0 -0.9,0.3 -1.8,0.9 -0.6,0.6 -1.2,0.9 -1.2,1.2 0,0 0.2,0.3 0.6,0.9 0.7,0.6 0.7,0.9 0.2,1.8 l -0.4,0.3 h -1.1 c -0.6,0 -1.5,0 -1.8,-0.3 -0.9,0 -0.8,0 -0.1,2.1 1,3 1.1,3.2 1.3,3.2 0.1,0 1.3,-1.2 2.8,-2.4 1.5,-1.2 2.7,-2.4 2.8,-2.4 l 0.6,0.3 c 0.4,0.3 0.5,0 1.3,-0.6 l 0.8,-0.6 0.8,0.6 c 1.9,1.2 2.2,1.5 2.3,2.4 0.2,1.5 0.3,1.8 0.5,1.8 0.1,0 1.3,-1.5 1.6,-1.8 0.1,-0.3 -0.1,-0.6 -1.1,-2.1 -0.7,-0.9 -1.1,-1.8 -1.1,-2.1 0,0 0.1,0 0.3,-0.3 0.2,0 0.4,0.3 1,0.9 -1.6,-2.3 -3.2,-4.7 -5.1,-6.8 z m 2.8,10.7 c -0.2,0 -0.9,0.9 -0.8,1.2 l 0.5,0.3 H 75 c 0.2,0 0.3,0 0.2,-0.3 C 75.1,37.4 75,36.8 74.9,36.8 Z M 72.3,38 h -2.4 l -2.4,0.3 -4.5,3.5 -4.4,3.8 v 3.5 c 0,2.1 0,3.8 0.1,3.8 0.1,0 0.7,0.9 1.5,1.5 0.8,0.9 1.5,1.5 1.8,1.8 0.4,0.3 0.5,0.3 4,0.6 l 3.4,0.3 1.6,0.9 c 0.8,0.6 1.5,1.2 1.6,1.2 0.1,0 -0.3,0.3 -0.6,0.6 l -0.6,0.6 1,1.2 c 0.5,0.6 1.3,1.5 1.7,1.8 l 0.6,0.9 v 1.7 0.9 c 3.7,-5 5.9,-11.5 6.1,-18.3 0.1,-2.7 -0.3,-5.3 -0.8,-8 l -0.6,-0.3 c -0.1,0 -0.5,0.3 -1,0.6 -0.5,0.3 -1,0.9 -1.1,0.9 -0.1,0 -0.8,-0.3 -1.8,-0.6 l -1.8,-0.6 v -0.9 c 0,-0.6 0,-0.9 -0.6,-1.5 z M 48,63.7 V 64 h 0.2 z"
   class="st2"
   id="XMLID_13_"
   inkscape:connector-curvature="0"
   style="fill:#2ecc71" />
	<path
   d="m 48,15.5 c -3.1,0 -6.2,0.5 -9,1.3 0.3,0.4 0.3,0.4 0.6,0.9 1.5,2.5 1.7,2.8 2.1,2.9 0.3,0 0.9,0.1 1.6,0.1 h 1.2 l 0.9,-2 0.8,-1.9 1.8,-0.6 z m -16.9,4.7 c -2.8,1.7 -5.4,3.9 -7.6,6.4 -3.8,4.3 -6.3,9.6 -7.4,15.4 0.5,0 0.9,-0.1 1.8,-0.1 2.8,0.1 2.5,0 3.4,1.4 0.5,0.8 0.6,0.8 1.4,0.8 1,0.1 0.9,0 0.5,-1.6 -0.2,-0.6 -0.3,-1.2 -0.3,-1.4 0,-0.2 0.5,-0.7 1.7,-1.6 1.9,-1.5 1.8,-1.3 1.5,-2.9 -0.1,-0.3 0.1,-0.6 0.6,-1.2 0.7,-0.7 0.7,-0.6 1.4,-0.6 h 0.7 l 0.1,-1.2 c 0.1,-0.7 0.1,-1.3 0.2,-1.3 0,0 1.9,-1.1 4.1,-2.3 2.2,-1.2 4.1,-2.2 4.2,-2.3 0.2,-0.2 -0.3,-0.8 -2.7,-3.8 -1.5,-1.9 -2.8,-3.6 -2.9,-3.7 z m -5.8,23 c -0.1,0 -0.1,0.3 -0.1,0.6 0,0.6 0,0.7 0.6,1 0.8,0.4 0.9,0.5 0.8,0.2 -0.1,-0.4 -1.2,-1.9 -1.3,-1.8 z m -3.4,2.1 -0.5,1.8 c 0.1,0.1 0.9,0.3 1.8,0.5 1,0.2 1.6,0.4 1.8,0.3 l 0.5,-1.3 z m -3.8,1 -1.1,0.6 c -0.6,0.3 -1.2,0.6 -1.4,0.6 h -0.1 c 0,1.4 0.1,2.8 0.3,4.2 l 0.6,0.4 1,-0.1 h 1 l 0.6,1.4 c 0.3,0.7 0.7,1.4 0.8,1.5 0.1,0.1 1,0.1 1.8,0.1 h 1.5 L 23,56.2 c 0,1.2 0,1.3 -0.6,2.2 -0.4,0.5 -0.6,1.2 -0.6,1.4 0,0.2 0.7,2.1 1.6,4.3 l 1.5,4 1.6,0.8 c 1.2,0.6 1.5,0.8 1.5,1 0,0.1 -0.4,2.1 -0.6,3.1 3,2.5 6.4,4.5 10.2,5.8 3.5,-3.6 6.8,-7.1 7.3,-7.6 l 0.7,-0.7 0.2,-1.9 c 0.2,-1.1 0.4,-2.1 0.4,-2.2 0,-0.1 0.5,-0.6 1,-1.2 0.5,-0.5 0.8,-1 0.8,-1.1 v -0.2 c -0.1,-0.1 -1.4,-1.1 -3,-2.2 l -3.1,-2.1 -1.1,-0.1 c -0.8,0 -1.2,0 -1.3,-0.2 C 39.4,59.2 39.2,58.5 39.1,57.7 39,56.9 38.9,56.2 38.8,56.1 38.8,56 38,56 37.1,56 36.2,56 35.4,55.9 35.3,55.8 35.2,55.7 35.2,55.1 35.1,54.3 35,53.6 34.9,53 34.8,52.9 34.7,52.8 33.7,52.7 32.5,52.6 30.5,52.5 30.1,52.5 29.1,52 l -1.2,-0.6 -1.6,0.7 -1.7,0.9 -1.8,-0.1 c -2,0 -1.9,0.2 -2.1,-1.6 C 20.6,50.7 20.6,50.1 20.5,50.1 20.4,50 20,50 19.6,49.9 L 18.9,49.7 19,49.2 c 0,-0.3 0,-1 0.1,-1.4 L 19.2,47 18.7,46.5 Z m 9.1,1.1 C 27.1,47.5 27.1,47.8 27,48 l -0.1,0.5 2.9,1.2 c 2.9,1.1 3.4,1.2 3.9,0.7 0.2,-0.2 0.1,-0.2 -0.3,-0.4 -0.3,-0.1 -1.7,-0.9 -3.2,-1.6 -1.7,-0.7 -2.9,-1.1 -3,-1 z"
   class="st3"
   id="XMLID_20_"
   inkscape:connector-curvature="0"
   style="fill:#27ae60" />
</g><g
     transform="matrix(1.458069,0,0,1.458069,-22.631538,-19.615144)"
     id="g7664"><path
       inkscape:connector-curvature="0"
       id="XMLID_6_"
       class="st3"
       d="m 38.8,56.1 c 0,1.2 1,2.2 2.2,2.2 h 15.2 c 1.2,0 2.2,-1 2.2,-2.2 V 45.3 c 0,-1.2 -1,-2.2 -2.2,-2.2 H 40.9 c -1.2,0 -2.2,1 -2.2,2.2 v 10.8 z"
       style="fill:#f1aa27;fill-opacity:1" /><path
       style="fill:#e6e6e6"
       inkscape:connector-curvature="0"
       id="XMLID_7_"
       class="st4"
       d="m 55.5,43.1 h -3.3 v -3.7 c 0,-2.1 -1.7,-3.8 -3.8,-3.8 -2.1,0 -3.8,1.7 -3.8,3.8 v 3.8 h -3.1 v -3.8 c 0,-3.9 3.2,-7 7,-7 3.9,0 7,3.2 7,7 z" /><path
       style="fill:#e6e6e6;fill-opacity:1"
       inkscape:connector-curvature="0"
       id="XMLID_8_"
       class="st5"
       d="m 50,48.2 c 0,-1 -0.8,-1.8 -1.8,-1.8 -1,0 -1.8,0.8 -1.8,1.8 0,0.7 0.4,1.3 1,1.6 l -1,5.2 H 50 l -1,-5.2 c 0.6,-0.3 1,-0.9 1,-1.6 z" /></g></g></svg>